<mxfile host="app.diagrams.net" agent="Mozilla/5.0 (Windows NT 10.0; Win64; x64; rv:130.0) Gecko/20100101 Firefox/130.0" version="24.7.16">
  <diagram name="Page-1" id="_mO3tyfrVcUB4beLLvPT">
    <mxGraphModel dx="1146" dy="1635" grid="1" gridSize="10" guides="1" tooltips="1" connect="1" arrows="1" fold="1" page="1" pageScale="1" pageWidth="850" pageHeight="1100" math="0" shadow="0">
      <root>
        <mxCell id="0" />
        <mxCell id="1" parent="0" />
        <mxCell id="PSdeQs11GAOeGO6WQRNR-1" value="" style="shape=umlLifeline;participant=umlActor;perimeter=lifelinePerimeter;whiteSpace=wrap;html=1;container=1;collapsible=0;recursiveResize=0;verticalAlign=top;spacingTop=36;outlineConnect=0;fillColor=#cdeb8b;strokeColor=#36393d;" vertex="1" parent="1">
          <mxGeometry x="120" width="25" height="310" as="geometry" />
        </mxCell>
        <mxCell id="PSdeQs11GAOeGO6WQRNR-2" value="Système" style="shape=umlLifeline;perimeter=lifelinePerimeter;whiteSpace=wrap;html=1;container=1;collapsible=0;recursiveResize=0;outlineConnect=0;fillColor=#ffff88;strokeColor=#36393d;" vertex="1" parent="1">
          <mxGeometry x="344" y="10" width="140" height="300" as="geometry" />
        </mxCell>
        <mxCell id="PSdeQs11GAOeGO6WQRNR-3" value="&lt;div&gt;4: vérification&lt;/div&gt;et traitement" style="html=1;align=left;spacingLeft=2;endArrow=block;rounded=0;edgeStyle=orthogonalEdgeStyle;curved=0;rounded=0;" edge="1" parent="PSdeQs11GAOeGO6WQRNR-2">
          <mxGeometry x="0.1716" y="-10" relative="1" as="geometry">
            <mxPoint x="75" y="140" as="sourcePoint" />
            <Array as="points">
              <mxPoint x="106" y="140" />
              <mxPoint x="106" y="170" />
            </Array>
            <mxPoint x="80" y="170" as="targetPoint" />
            <mxPoint as="offset" />
          </mxGeometry>
        </mxCell>
        <mxCell id="PSdeQs11GAOeGO6WQRNR-4" value="" style="html=1;points=[[0,0,0,0,5],[0,1,0,0,-5],[1,0,0,0,5],[1,1,0,0,-5]];perimeter=orthogonalPerimeter;outlineConnect=0;targetShapes=umlLifeline;portConstraint=eastwest;newEdgeStyle={&quot;curved&quot;:0,&quot;rounded&quot;:0};fillColor=#cce5ff;strokeColor=#36393d;" vertex="1" parent="PSdeQs11GAOeGO6WQRNR-2">
          <mxGeometry x="65" y="80" width="10" height="200" as="geometry" />
        </mxCell>
        <mxCell id="PSdeQs11GAOeGO6WQRNR-5" value="" style="html=1;points=[[0,0,0,0,5],[0,1,0,0,-5],[1,0,0,0,5],[1,1,0,0,-5]];perimeter=orthogonalPerimeter;outlineConnect=0;targetShapes=umlLifeline;portConstraint=eastwest;newEdgeStyle={&quot;curved&quot;:0,&quot;rounded&quot;:0};fillColor=#cce5ff;strokeColor=#36393d;" vertex="1" parent="PSdeQs11GAOeGO6WQRNR-2">
          <mxGeometry x="70" y="160" width="10" height="20" as="geometry" />
        </mxCell>
        <mxCell id="PSdeQs11GAOeGO6WQRNR-6" value="alt" style="shape=umlFrame;whiteSpace=wrap;html=1;fillColor=#ffcc99;strokeColor=#36393d;" vertex="1" parent="1">
          <mxGeometry x="40" y="200" width="467.5" height="100.5" as="geometry" />
        </mxCell>
        <mxCell id="PSdeQs11GAOeGO6WQRNR-7" value="1: demande le formulaire de créer une offre" style="html=1;verticalAlign=bottom;endArrow=block;" edge="1" parent="1">
          <mxGeometry x="-0.0015" width="80" relative="1" as="geometry">
            <mxPoint x="135" y="90" as="sourcePoint" />
            <mxPoint x="413.5" y="90" as="targetPoint" />
            <Array as="points">
              <mxPoint x="250" y="90" />
            </Array>
            <mxPoint as="offset" />
          </mxGeometry>
        </mxCell>
        <mxCell id="PSdeQs11GAOeGO6WQRNR-8" value="" style="html=1;verticalAlign=bottom;endArrow=open;endSize=8;" edge="1" parent="1">
          <mxGeometry relative="1" as="geometry">
            <mxPoint x="410" y="240" as="sourcePoint" />
            <mxPoint x="129.81034482758605" y="239.75999999999993" as="targetPoint" />
            <Array as="points">
              <mxPoint x="253.5" y="239.76" />
            </Array>
          </mxGeometry>
        </mxCell>
        <mxCell id="PSdeQs11GAOeGO6WQRNR-18" value="5. OK" style="edgeLabel;html=1;align=center;verticalAlign=middle;resizable=0;points=[];" vertex="1" connectable="0" parent="PSdeQs11GAOeGO6WQRNR-8">
          <mxGeometry x="0.5707" relative="1" as="geometry">
            <mxPoint x="60" y="-10" as="offset" />
          </mxGeometry>
        </mxCell>
        <mxCell id="PSdeQs11GAOeGO6WQRNR-9" value="&lt;div style=&quot;font-size: 10px;&quot;&gt;&lt;font style=&quot;font-size: 10px;&quot;&gt;Diagramme de séquence Système : Créer une offre&lt;br&gt;&lt;/font&gt;&lt;/div&gt;" style="shape=umlFrame;whiteSpace=wrap;html=1;pointerEvents=0;width=310;height=20;fillColor=#f9f7ed;strokeColor=#36393d;" vertex="1" parent="1">
          <mxGeometry x="30" y="-50" width="490" height="360" as="geometry" />
        </mxCell>
        <mxCell id="PSdeQs11GAOeGO6WQRNR-10" value="Administrateur" style="text;html=1;align=center;verticalAlign=middle;resizable=0;points=[];autosize=1;strokeColor=none;fillColor=none;" vertex="1" parent="1">
          <mxGeometry x="82.5" y="40" width="100" height="30" as="geometry" />
        </mxCell>
        <mxCell id="PSdeQs11GAOeGO6WQRNR-11" value="6: message d&#39;erreur" style="html=1;verticalAlign=bottom;endArrow=open;endSize=11;startSize=0;jumpSize=14;" edge="1" parent="1">
          <mxGeometry relative="1" as="geometry">
            <mxPoint x="408" y="286" as="sourcePoint" />
            <mxPoint x="129.81034482758605" y="285.99999999999994" as="targetPoint" />
            <Array as="points">
              <mxPoint x="254" y="286" />
            </Array>
          </mxGeometry>
        </mxCell>
        <mxCell id="PSdeQs11GAOeGO6WQRNR-13" value="" style="line;strokeWidth=1;fillColor=none;align=left;verticalAlign=middle;spacingTop=-1;spacingLeft=3;spacingRight=3;rotatable=0;labelPosition=right;points=[];portConstraint=eastwest;strokeColor=inherit;dashed=1;" vertex="1" parent="1">
          <mxGeometry x="42.5" y="258" width="465" height="8" as="geometry" />
        </mxCell>
        <mxCell id="PSdeQs11GAOeGO6WQRNR-14" value="[Succès]" style="text;html=1;align=center;verticalAlign=middle;resizable=0;points=[];autosize=1;strokeColor=none;" vertex="1" parent="1">
          <mxGeometry x="61.5" y="230" width="60" height="20" as="geometry" />
        </mxCell>
        <mxCell id="PSdeQs11GAOeGO6WQRNR-15" value="[Echec]" style="text;html=1;align=center;verticalAlign=middle;resizable=0;points=[];autosize=1;strokeColor=none;" vertex="1" parent="1">
          <mxGeometry x="61.5" y="266" width="60" height="20" as="geometry" />
        </mxCell>
        <mxCell id="PSdeQs11GAOeGO6WQRNR-16" value="2: affiche le formulaire" style="html=1;verticalAlign=bottom;endArrow=open;endSize=11;startSize=0;jumpSize=14;" edge="1" parent="1">
          <mxGeometry relative="1" as="geometry">
            <mxPoint x="410.59" y="120" as="sourcePoint" />
            <mxPoint x="132.40034482758605" y="119.99999999999994" as="targetPoint" />
            <Array as="points">
              <mxPoint x="256.59" y="120" />
            </Array>
          </mxGeometry>
        </mxCell>
        <mxCell id="PSdeQs11GAOeGO6WQRNR-17" value="3: remplit les champs(nom,commission,le type)" style="html=1;verticalAlign=bottom;endArrow=block;" edge="1" parent="1">
          <mxGeometry x="-0.0015" width="80" relative="1" as="geometry">
            <mxPoint x="134.5" y="150" as="sourcePoint" />
            <mxPoint x="413" y="150" as="targetPoint" />
            <Array as="points">
              <mxPoint x="249.5" y="150" />
            </Array>
            <mxPoint as="offset" />
          </mxGeometry>
        </mxCell>
      </root>
    </mxGraphModel>
  </diagram>
</mxfile>
